<svg width="119" height="22" viewBox="0 0 119 22" fill="none" xmlns="http://www.w3.org/2000/svg">
<path fill-rule="evenodd" clip-rule="evenodd" d="M94.1613 7.28476C95.0513 6.01611 96.3059 5 98.2464 5C101.099 5 103.86 7.28476 103.86 11.3693C103.86 15.4077 101.122 17.6917 98.2457 17.6917C96.261 17.6917 95.0056 16.6771 94.1613 15.5462L94.1573 15.5339V21.4H91.4688V5.26886H94.1573V7.30159L94.1613 7.28476ZM97.607 15.2699C95.7357 15.2699 94.0928 13.7234 94.0928 11.3693C94.0928 8.99292 95.7357 7.42331 97.607 7.42331C99.4782 7.42331 101.053 8.96983 101.053 11.3231C101.053 13.7695 99.5011 15.2699 97.607 15.2699Z" fill="white"/>
<path fill-rule="evenodd" clip-rule="evenodd" d="M81.2524 5.87757C82.2353 5.52274 83.3265 5.29766 84.7509 5.29766C88.1833 5.29766 89.8557 7.00445 89.8557 10.1082V17.0984H87.1672V15.6675C86.3749 16.6134 85.2131 17.3403 83.4527 17.3403C81.2525 17.3403 79.3163 16.0855 79.3163 13.7517V13.7082C79.3163 11.198 81.3189 9.96491 84.0251 9.96491C85.4332 9.96491 86.2652 10.1632 87.1672 10.4493V10.1632C87.1672 8.55596 86.2253 7.67534 84.377 7.67534C83.1723 7.67534 82.223 7.92388 81.2524 8.31094V5.87757ZM84.0868 15.3367C85.8471 15.3367 87.1672 14.3463 87.1672 12.893V12.1667C86.4853 11.9026 85.5389 11.7043 84.5047 11.7043C82.8324 11.7043 81.8423 12.3864 81.8423 13.5753V13.6199C81.8423 14.7205 82.8324 15.3367 84.0868 15.3367Z" fill="white"/>
<path d="M104.911 5.26886H107.6L111.633 11.1836L115.666 5.26885H118.354V17.0984H115.666V9.03278L111.633 14.9475L107.6 9.03278V17.0984H104.911V5.26886Z" fill="white"/>
<path d="M77.4885 17.0984V5.26885L68.3475 5.2696C68.3475 14.5465 67.1818 14.952 65.7894 14.952C65.7548 14.952 65.7091 14.9505 65.659 14.9475V17.2576C65.9345 17.2852 66.2064 17.3053 66.4053 17.3053C69.0759 17.3053 71.036 16.2578 71.036 7.41967H74.8V17.0984H77.4885Z" fill="white"/>
<path fill-rule="evenodd" clip-rule="evenodd" d="M58.9411 5.29767C57.5167 5.29767 56.4255 5.52275 55.4426 5.87758V8.31095C56.4131 7.92389 57.3625 7.67535 58.5671 7.67535C60.4155 7.67535 61.3574 8.55597 61.3574 10.1632V10.4493C60.4554 10.1632 59.6234 9.96492 58.2152 9.96492C55.5091 9.96492 53.5065 11.198 53.5065 13.7082V13.7518C53.5065 16.0855 55.4427 17.3403 57.6429 17.3403C59.4033 17.3403 60.5651 16.6134 61.3574 15.6675V17.0984H64.0459V10.1082C64.0459 7.00446 62.3735 5.29767 58.9411 5.29767ZM61.3574 12.893C61.3574 14.3463 60.0373 15.3367 58.277 15.3367C57.0226 15.3367 56.0325 14.7205 56.0325 13.6199V13.5753C56.0325 12.3864 57.0226 11.7043 58.6949 11.7043C59.7291 11.7043 60.6754 11.9026 61.3574 12.1668V12.893Z" fill="white"/>
<path fill-rule="evenodd" clip-rule="evenodd" d="M42 17.0984H48.0712C50.7298 17.0984 52.3913 15.8669 52.3913 13.8721C52.3913 12.192 51.3943 11.3413 49.9766 10.9377C50.9737 10.4893 51.8599 9.7277 51.8599 8.22623C51.8599 6.41159 50.2408 5.26885 47.9147 5.26885H42V17.0984ZM44.6885 7.41967V10.1082H47.377C48.5064 10.1082 49.1348 9.56071 49.1348 8.71016C49.1348 7.94785 48.5737 7.41967 47.377 7.41967H44.6885ZM44.6885 14.9481V11.99H47.539C48.9795 11.99 49.6662 12.573 49.6662 13.4242C49.6662 14.3428 48.9534 14.9474 47.6459 14.9474L44.6885 14.9481Z" fill="white"/>
<path d="M0 6.14748L14.4825 0L14.4825 8.74519L27.8587 3.06737L27.8587 10.0837L35 7.05241V12.0315L27.8587 15.0628L27.8587 12.4032L14.4687 18.0869V13.991L0 20.1326V6.14748Z" fill="#FC7303"/>
</svg>